<svg viewBox="0 0 187 43" xmlns="http://www.w3.org/2000/svg">
  <path d="M 33.471 4.591 L 27.216 33.554 L 16.546 33.554 L 11.48 12.622 L 7.017 33.554 L 2.912 33.554 L 9.069 4.591 L 19.967 4.591 L 24.756 25.8 L 29.268 4.591 L 33.471 4.591 Z M 71.964 4.591 L 65.758 33.554 L 55.642 33.554 L 59.829 13.844 L 49.029 33.554 L 42.823 33.554 L 40.77 13.159 L 36.388 33.554 L 32.283 33.554 L 38.441 4.591 L 50.071 4.591 L 51.489 20.913 L 60.236 4.591 L 71.964 4.591 Z M 99.187 11.482 C 99.187 13.273 98.687 14.93 97.689 16.45 C 96.689 17.97 95.034 19.126 92.72 19.92 L 98.014 33.554 L 87.834 33.554 L 83.826 20.913 L 83.321 20.913 L 80.634 33.554 L 70.779 33.554 L 76.936 4.591 L 88.925 4.591 C 90.326 4.591 91.65 4.673 92.9 4.836 C 94.147 5.01 95.234 5.345 96.157 5.845 C 97.091 6.346 97.829 7.046 98.373 7.947 C 98.915 8.838 99.187 10.016 99.187 11.482 Z M 83.908 17.997 L 86.058 17.997 C 86.85 17.997 87.529 17.732 88.094 17.199 C 88.648 16.667 89.104 16.021 89.463 15.261 C 89.81 14.5 90.059 13.686 90.212 12.817 C 90.363 11.959 90.44 11.21 90.44 10.569 C 90.44 9.776 90.303 9.098 90.033 8.533 C 89.749 7.968 89.153 7.686 88.241 7.686 L 86.188 7.686 L 83.908 17.997 Z M 119.587 19.691 L 113.657 19.691 C 113.678 19.54 113.706 19.387 113.739 19.235 C 113.771 19.084 113.788 18.914 113.788 18.73 C 113.788 18.188 113.69 17.676 113.494 17.199 C 113.299 16.732 112.908 16.499 112.321 16.499 C 111.812 16.499 111.295 16.715 110.774 17.15 C 110.264 17.595 110.008 18.181 110.008 18.91 C 110.008 19.398 110.134 19.789 110.383 20.082 C 110.644 20.364 110.986 20.599 111.409 20.783 C 111.844 20.967 112.326 21.12 112.859 21.239 C 113.392 21.358 113.913 21.478 114.423 21.597 C 115.151 21.781 115.845 22.005 116.508 22.265 C 117.159 22.526 117.741 22.868 118.251 23.291 C 118.772 23.715 119.184 24.241 119.489 24.872 C 119.793 25.49 119.945 26.256 119.945 27.168 C 119.945 28.45 119.647 29.519 119.049 30.377 C 118.463 31.246 117.643 31.946 116.589 32.479 C 115.547 33.011 114.314 33.386 112.892 33.603 C 111.479 33.81 109.971 33.912 108.363 33.912 C 105.899 33.912 103.862 33.733 102.255 33.375 C 100.637 33.005 99.507 32.653 98.866 32.316 L 99.828 27.755 L 105.985 27.755 C 105.952 27.906 105.936 28.053 105.936 28.195 C 105.936 28.336 105.936 28.483 105.936 28.634 C 105.936 29.33 106.099 29.884 106.425 30.296 C 106.739 30.708 107.293 30.915 108.086 30.915 C 108.966 30.915 109.596 30.659 109.976 30.149 C 110.355 29.649 110.546 29.188 110.546 28.765 C 110.546 28.341 110.388 27.966 110.074 27.641 C 109.748 27.326 109.345 27.054 108.868 26.826 C 108.379 26.598 107.837 26.403 107.239 26.24 C 106.653 26.066 106.083 25.903 105.529 25.751 C 105.138 25.665 104.693 25.512 104.193 25.295 C 103.683 25.088 103.199 24.785 102.743 24.383 C 102.287 23.992 101.908 23.482 101.603 22.852 C 101.298 22.233 101.147 21.451 101.147 20.506 C 101.147 19.17 101.478 18.051 102.141 17.15 C 102.792 16.259 103.639 15.538 104.682 14.984 C 105.736 14.441 106.925 14.05 108.249 13.811 C 109.573 13.562 110.904 13.436 112.24 13.436 C 113.913 13.436 115.493 13.588 116.98 13.892 C 118.467 14.197 119.684 14.593 120.629 15.082 L 119.587 19.691 Z M 134.908 13.941 L 130.657 33.554 L 121.404 33.554 L 125.558 13.941 L 134.908 13.941 Z M 136.098 7.963 C 136.098 8.668 135.951 9.278 135.658 9.788 C 135.364 10.309 134.983 10.749 134.517 11.107 C 134.05 11.477 133.512 11.754 132.905 11.938 C 132.296 12.122 131.672 12.215 131.032 12.215 C 129.815 12.215 128.793 11.921 127.969 11.335 C 127.155 10.76 126.747 9.848 126.747 8.598 C 126.747 7.935 126.883 7.339 127.155 6.807 C 127.425 6.274 127.795 5.834 128.262 5.487 C 128.74 5.129 129.289 4.863 129.908 4.689 C 130.536 4.505 131.183 4.412 131.846 4.412 C 133.029 4.412 134.034 4.7 134.86 5.275 C 135.684 5.85 136.098 6.746 136.098 7.963 Z M 147.179 16.857 L 147.44 16.857 C 148.082 16.25 148.798 15.689 149.59 15.179 C 150.286 14.744 151.121 14.349 152.099 13.99 C 153.076 13.62 154.174 13.436 155.389 13.436 C 156.845 13.436 157.93 13.774 158.647 14.446 C 159.364 15.109 159.766 15.929 159.852 16.906 L 160.129 16.906 C 160.825 16.266 161.586 15.689 162.41 15.179 C 163.105 14.744 163.925 14.349 164.87 13.99 C 165.814 13.62 166.819 13.436 167.883 13.436 C 169.458 13.436 170.74 13.871 171.727 14.739 C 172.716 15.608 173.21 16.727 173.21 18.095 C 173.21 18.791 173.091 19.719 172.851 20.881 C 172.613 22.032 172.341 23.291 172.037 24.66 L 170.115 33.554 L 161.123 33.554 L 163.599 21.646 C 163.687 21.19 163.773 20.75 163.86 20.327 C 163.957 19.903 164.006 19.556 164.006 19.284 C 164.006 18.849 163.882 18.491 163.632 18.209 C 163.394 17.916 163.045 17.769 162.589 17.769 C 162.014 17.769 161.476 17.976 160.976 18.388 C 160.466 18.8 160.076 19.143 159.804 19.415 L 156.839 33.554 L 148.319 33.554 L 150.828 21.646 C 150.883 21.255 150.958 20.853 151.056 20.441 C 151.144 20.029 151.186 19.654 151.186 19.317 C 151.186 18.861 151.072 18.491 150.844 18.209 C 150.616 17.916 150.274 17.769 149.818 17.769 C 149.276 17.769 148.75 17.97 148.238 18.372 C 147.74 18.763 147.354 19.094 147.081 19.366 L 144.068 33.554 L 134.767 33.554 L 138.92 13.941 L 146.348 13.941 L 147.179 16.857 Z" style="white-space: pre; text-decoration: underline solid rgba(0, 0, 0, 0.8); fill: rgba(53, 26, 204, 0.32);"></path>
  <path d="M 42.471 10.591 L 36.216 39.554 L 25.546 39.554 L 20.48 18.622 L 16.017 39.554 L 11.912 39.554 L 18.069 10.591 L 28.967 10.591 L 33.756 31.8 L 38.268 10.591 L 42.471 10.591 Z M 80.964 10.591 L 74.758 39.554 L 64.642 39.554 L 68.829 19.844 L 58.029 39.554 L 51.823 39.554 L 49.77 19.159 L 45.388 39.554 L 41.283 39.554 L 47.441 10.591 L 59.071 10.591 L 60.489 26.913 L 69.236 10.591 L 80.964 10.591 Z M 108.187 17.482 C 108.187 19.273 107.687 20.93 106.689 22.45 C 105.689 23.97 104.034 25.126 101.72 25.92 L 107.014 39.554 L 96.834 39.554 L 92.826 26.913 L 92.321 26.913 L 89.634 39.554 L 79.779 39.554 L 85.936 10.591 L 97.925 10.591 C 99.326 10.591 100.65 10.673 101.9 10.836 C 103.147 11.01 104.234 11.345 105.157 11.845 C 106.091 12.346 106.829 13.046 107.373 13.947 C 107.915 14.838 108.187 16.016 108.187 17.482 Z M 92.908 23.997 L 95.058 23.997 C 95.85 23.997 96.529 23.732 97.094 23.199 C 97.648 22.667 98.104 22.021 98.463 21.261 C 98.81 20.5 99.059 19.686 99.212 18.817 C 99.363 17.959 99.44 17.21 99.44 16.569 C 99.44 15.776 99.303 15.098 99.033 14.533 C 98.749 13.968 98.153 13.686 97.241 13.686 L 95.188 13.686 L 92.908 23.997 Z M 128.587 25.691 L 122.657 25.691 C 122.678 25.54 122.706 25.387 122.739 25.235 C 122.771 25.084 122.788 24.914 122.788 24.73 C 122.788 24.188 122.69 23.676 122.494 23.199 C 122.299 22.732 121.908 22.499 121.321 22.499 C 120.812 22.499 120.295 22.715 119.774 23.15 C 119.264 23.595 119.008 24.181 119.008 24.91 C 119.008 25.398 119.134 25.789 119.383 26.082 C 119.644 26.364 119.986 26.599 120.409 26.783 C 120.844 26.967 121.326 27.12 121.859 27.239 C 122.392 27.358 122.913 27.478 123.423 27.597 C 124.151 27.781 124.845 28.005 125.508 28.265 C 126.159 28.526 126.741 28.868 127.251 29.291 C 127.772 29.715 128.184 30.241 128.489 30.872 C 128.793 31.49 128.945 32.256 128.945 33.168 C 128.945 34.45 128.647 35.519 128.049 36.377 C 127.463 37.246 126.643 37.946 125.589 38.479 C 124.547 39.011 123.314 39.386 121.892 39.603 C 120.479 39.81 118.971 39.912 117.363 39.912 C 114.899 39.912 112.862 39.733 111.255 39.375 C 109.637 39.005 108.507 38.653 107.866 38.316 L 108.828 33.755 L 114.985 33.755 C 114.952 33.906 114.936 34.053 114.936 34.195 C 114.936 34.336 114.936 34.483 114.936 34.634 C 114.936 35.33 115.099 35.884 115.425 36.296 C 115.739 36.708 116.293 36.915 117.086 36.915 C 117.966 36.915 118.596 36.659 118.976 36.149 C 119.355 35.649 119.546 35.188 119.546 34.765 C 119.546 34.341 119.388 33.966 119.074 33.641 C 118.748 33.326 118.345 33.054 117.868 32.826 C 117.379 32.598 116.837 32.403 116.239 32.24 C 115.653 32.066 115.083 31.903 114.529 31.751 C 114.138 31.665 113.693 31.512 113.193 31.295 C 112.683 31.088 112.199 30.785 111.743 30.383 C 111.287 29.992 110.908 29.482 110.603 28.852 C 110.298 28.233 110.147 27.451 110.147 26.506 C 110.147 25.17 110.478 24.051 111.141 23.15 C 111.792 22.259 112.639 21.538 113.682 20.984 C 114.736 20.441 115.925 20.05 117.249 19.811 C 118.573 19.562 119.904 19.436 121.24 19.436 C 122.913 19.436 124.493 19.588 125.98 19.892 C 127.467 20.197 128.684 20.593 129.629 21.082 L 128.587 25.691 Z M 143.908 19.941 L 139.657 39.554 L 130.404 39.554 L 134.558 19.941 L 143.908 19.941 Z M 145.098 13.963 C 145.098 14.668 144.951 15.278 144.658 15.788 C 144.364 16.309 143.983 16.749 143.517 17.107 C 143.05 17.477 142.512 17.754 141.905 17.938 C 141.296 18.122 140.672 18.215 140.032 18.215 C 138.815 18.215 137.793 17.921 136.969 17.335 C 136.155 16.76 135.747 15.848 135.747 14.598 C 135.747 13.935 135.883 13.339 136.155 12.807 C 136.425 12.274 136.795 11.834 137.262 11.487 C 137.74 11.129 138.289 10.863 138.908 10.689 C 139.536 10.505 140.183 10.412 140.846 10.412 C 142.029 10.412 143.034 10.7 143.86 11.275 C 144.684 11.85 145.098 12.746 145.098 13.963 Z M 156.179 22.857 L 156.44 22.857 C 157.082 22.25 157.798 21.689 158.59 21.179 C 159.286 20.744 160.121 20.349 161.099 19.99 C 162.076 19.62 163.174 19.436 164.389 19.436 C 165.845 19.436 166.93 19.774 167.647 20.446 C 168.364 21.109 168.766 21.929 168.852 22.906 L 169.129 22.906 C 169.825 22.266 170.586 21.689 171.41 21.179 C 172.105 20.744 172.925 20.349 173.87 19.99 C 174.814 19.62 175.819 19.436 176.883 19.436 C 178.458 19.436 179.74 19.871 180.727 20.739 C 181.716 21.608 182.21 22.727 182.21 24.095 C 182.21 24.791 182.091 25.719 181.851 26.881 C 181.613 28.032 181.341 29.291 181.037 30.66 L 179.115 39.554 L 170.123 39.554 L 172.599 27.646 C 172.687 27.19 172.773 26.75 172.86 26.327 C 172.957 25.903 173.006 25.556 173.006 25.284 C 173.006 24.849 172.882 24.491 172.632 24.209 C 172.394 23.916 172.045 23.769 171.589 23.769 C 171.014 23.769 170.476 23.976 169.976 24.388 C 169.466 24.8 169.076 25.143 168.804 25.415 L 165.839 39.554 L 157.319 39.554 L 159.828 27.646 C 159.883 27.255 159.958 26.853 160.056 26.441 C 160.144 26.029 160.186 25.654 160.186 25.317 C 160.186 24.861 160.072 24.491 159.844 24.209 C 159.616 23.916 159.274 23.769 158.818 23.769 C 158.276 23.769 157.75 23.97 157.238 24.372 C 156.74 24.763 156.354 25.094 156.081 25.366 L 153.068 39.554 L 143.767 39.554 L 147.92 19.941 L 155.348 19.941 L 156.179 22.857 Z" style="white-space: pre; text-decoration: underline solid rgba(0, 0, 0, 0.8); fill: rgba(196, 21, 21, 0.4);"></path>
  <path d="M 38.471 7.591 L 32.216 36.554 L 21.546 36.554 L 16.48 15.622 L 12.017 36.554 L 7.912 36.554 L 14.069 7.591 L 24.967 7.591 L 29.756 28.8 L 34.268 7.591 L 38.471 7.591 Z M 76.964 7.591 L 70.758 36.554 L 60.642 36.554 L 64.829 16.844 L 54.029 36.554 L 47.823 36.554 L 45.77 16.159 L 41.388 36.554 L 37.283 36.554 L 43.441 7.591 L 55.071 7.591 L 56.489 23.913 L 65.236 7.591 L 76.964 7.591 Z M 104.187 14.482 C 104.187 16.273 103.687 17.93 102.689 19.45 C 101.689 20.97 100.034 22.126 97.72 22.92 L 103.014 36.554 L 92.834 36.554 L 88.826 23.913 L 88.321 23.913 L 85.634 36.554 L 75.779 36.554 L 81.936 7.591 L 93.925 7.591 C 95.326 7.591 96.65 7.673 97.9 7.836 C 99.147 8.01 100.234 8.345 101.157 8.845 C 102.091 9.346 102.829 10.046 103.373 10.947 C 103.915 11.838 104.187 13.016 104.187 14.482 Z M 88.908 20.997 L 91.058 20.997 C 91.85 20.997 92.529 20.732 93.094 20.199 C 93.648 19.667 94.104 19.021 94.463 18.261 C 94.81 17.5 95.059 16.686 95.212 15.817 C 95.363 14.959 95.44 14.21 95.44 13.569 C 95.44 12.776 95.303 12.098 95.033 11.533 C 94.749 10.968 94.153 10.686 93.241 10.686 L 91.188 10.686 L 88.908 20.997 Z M 124.587 22.691 L 118.657 22.691 C 118.678 22.54 118.706 22.387 118.739 22.235 C 118.771 22.084 118.788 21.914 118.788 21.73 C 118.788 21.188 118.69 20.676 118.494 20.199 C 118.299 19.732 117.908 19.499 117.321 19.499 C 116.812 19.499 116.295 19.715 115.774 20.15 C 115.264 20.595 115.008 21.181 115.008 21.91 C 115.008 22.398 115.134 22.789 115.383 23.082 C 115.644 23.364 115.986 23.599 116.409 23.783 C 116.844 23.967 117.326 24.12 117.859 24.239 C 118.392 24.358 118.913 24.478 119.423 24.597 C 120.151 24.781 120.845 25.005 121.508 25.265 C 122.159 25.526 122.741 25.868 123.251 26.291 C 123.772 26.715 124.184 27.241 124.489 27.872 C 124.793 28.49 124.945 29.256 124.945 30.168 C 124.945 31.45 124.647 32.519 124.049 33.377 C 123.463 34.246 122.643 34.946 121.589 35.479 C 120.547 36.011 119.314 36.386 117.892 36.603 C 116.479 36.81 114.971 36.912 113.363 36.912 C 110.899 36.912 108.862 36.733 107.255 36.375 C 105.637 36.005 104.507 35.653 103.866 35.316 L 104.828 30.755 L 110.985 30.755 C 110.952 30.906 110.936 31.053 110.936 31.195 C 110.936 31.336 110.936 31.483 110.936 31.634 C 110.936 32.33 111.099 32.884 111.425 33.296 C 111.739 33.708 112.293 33.915 113.086 33.915 C 113.966 33.915 114.596 33.659 114.976 33.149 C 115.355 32.649 115.546 32.188 115.546 31.765 C 115.546 31.341 115.388 30.966 115.074 30.641 C 114.748 30.326 114.345 30.054 113.868 29.826 C 113.379 29.598 112.837 29.403 112.239 29.24 C 111.653 29.066 111.083 28.903 110.529 28.751 C 110.138 28.665 109.693 28.512 109.193 28.295 C 108.683 28.088 108.199 27.785 107.743 27.383 C 107.287 26.992 106.908 26.482 106.603 25.852 C 106.298 25.233 106.147 24.451 106.147 23.506 C 106.147 22.17 106.478 21.051 107.141 20.15 C 107.792 19.259 108.639 18.538 109.682 17.984 C 110.736 17.441 111.925 17.05 113.249 16.811 C 114.573 16.562 115.904 16.436 117.24 16.436 C 118.913 16.436 120.493 16.588 121.98 16.892 C 123.467 17.197 124.684 17.593 125.629 18.082 L 124.587 22.691 Z M 139.908 16.941 L 135.657 36.554 L 126.404 36.554 L 130.558 16.941 L 139.908 16.941 Z M 141.098 10.963 C 141.098 11.668 140.951 12.278 140.658 12.788 C 140.364 13.309 139.983 13.749 139.517 14.107 C 139.05 14.477 138.512 14.754 137.905 14.938 C 137.296 15.122 136.672 15.215 136.032 15.215 C 134.815 15.215 133.793 14.921 132.969 14.335 C 132.155 13.76 131.747 12.848 131.747 11.598 C 131.747 10.935 131.883 10.339 132.155 9.807 C 132.425 9.274 132.795 8.834 133.262 8.487 C 133.74 8.129 134.289 7.863 134.908 7.689 C 135.536 7.505 136.183 7.412 136.846 7.412 C 138.029 7.412 139.034 7.7 139.86 8.275 C 140.684 8.85 141.098 9.746 141.098 10.963 Z M 152.179 19.857 L 152.44 19.857 C 153.082 19.25 153.798 18.689 154.59 18.179 C 155.286 17.744 156.121 17.349 157.099 16.99 C 158.076 16.62 159.174 16.436 160.389 16.436 C 161.845 16.436 162.93 16.774 163.647 17.446 C 164.364 18.109 164.766 18.929 164.852 19.906 L 165.129 19.906 C 165.825 19.266 166.586 18.689 167.41 18.179 C 168.105 17.744 168.925 17.349 169.87 16.99 C 170.814 16.62 171.819 16.436 172.883 16.436 C 174.458 16.436 175.74 16.871 176.727 17.739 C 177.716 18.608 178.21 19.727 178.21 21.095 C 178.21 21.791 178.091 22.719 177.851 23.881 C 177.613 25.032 177.341 26.291 177.037 27.66 L 175.115 36.554 L 166.123 36.554 L 168.599 24.646 C 168.687 24.19 168.773 23.75 168.86 23.327 C 168.957 22.903 169.006 22.556 169.006 22.284 C 169.006 21.849 168.882 21.491 168.632 21.209 C 168.394 20.916 168.045 20.769 167.589 20.769 C 167.014 20.769 166.476 20.976 165.976 21.388 C 165.466 21.8 165.076 22.143 164.804 22.415 L 161.839 36.554 L 153.319 36.554 L 155.828 24.646 C 155.883 24.255 155.958 23.853 156.056 23.441 C 156.144 23.029 156.186 22.654 156.186 22.317 C 156.186 21.861 156.072 21.491 155.844 21.209 C 155.616 20.916 155.274 20.769 154.818 20.769 C 154.276 20.769 153.75 20.97 153.238 21.372 C 152.74 21.763 152.354 22.094 152.081 22.366 L 149.068 36.554 L 139.767 36.554 L 143.92 16.941 L 151.348 16.941 L 152.179 19.857 Z" style="white-space: pre; text-decoration: underline solid rgba(0, 0, 0, 0.8); fill: rgb(255, 255, 255); stroke: rgba(0, 0, 0, 0.5);"></path>
</svg>